<?xml version="1.0" encoding="UTF-8"?>
<svg version="1.2" baseProfile="tiny-ps" id="ai-espresso-bimi" xmlns="http://www.w3.org/2000/svg" viewBox="0 0 1254 1254">
  <title>AI Espresso</title>
  <rect width="1254" height="1254" fill="#EAFF00"/>
  <path fill="#111111" d="M456 247l43-42c78 75 24 154-10 202-25 36-40 68-2 115l-50 41c-76-93-26-164 12-219 30-43 48-72 7-97z"/>
  <path fill="#111111" d="M596 247l43-42c78 75 24 154-10 202-25 36-40 68-2 115l-50 41c-76-93-26-164 12-219 30-43 48-72 7-97z"/>
  <path fill="#111111" d="M736 247l43-42c78 75 24 154-10 202-25 36-40 68-2 115l-50 41c-76-93-26-164 12-219 30-43 48-72 7-97z"/>
  <path fill="#111111" fill-rule="evenodd" d="M314 516h559v27h52c51 0 88 40 88 97 0 60-45 105-105 105h-82c-41 68-111 106-193 106H532c-123 0-218-112-218-335zm559 78v101h35c34 0 58-23 58-55 0-28-24-46-60-46h-33z"/>
  <path fill="#111111" d="M266 886h649c20 0 32 20 22 37-39 65-96 59-171 59H370c-56 0-90-28-119-69-9-13-2-27 15-27z"/>
</svg>
